{"accessors":[{"bufferView":0,"byteOffset":0,"componentType":5123,"count":14916,"type":"SCALAR"},{"bufferView":1,"byteOffset":0,"componentType":5126,"count":8494,"max":[0.297834813594818,0.190022766590118,0.0385238714516163],"min":[-0.67452001571655,-0.03990862891078,-0.03824289515615],"type":"VEC3"},{"bufferView":2,"byteOffset":0,"componentType":5126,"count":8494,"type":"VEC3"},{"bufferView":3,"byteOffset":0,"componentType":5126,"count":8494,"type":"VEC2"},{"bufferView":4,"byteOffset":0,"componentType":5123,"count":258,"type":"SCALAR"},{"bufferView":5,"byteOffset":0,"componentType":5126,"count":158,"max":[0.0040883501060307,0.00507026026025414,0.00286190118640661],"min":[-0.0041586230509,-0.02635427378118,-0.00286190118641],"type":"VEC3"},{"bufferView":6,"byteOffset":0,"componentType":5126,"count":158,"type":"VEC3"},{"bufferView":7,"byteOffset":0,"componentType":5126,"count":158,"type":"VEC2"},{"bufferView":8,"byteOffset":0,"componentType":5123,"count":228,"type":"SCALAR"},{"bufferView":9,"byteOffset":0,"componentType":5126,"count":132,"max":[0.0110209519043565,0.00354833900928497,0.0181478038430214],"min":[-0.04298184812069,-0.00346741080284,-0.01814780756831],"type":"VEC3"},{"bufferView":10,"byteOffset":0,"componentType":5126,"count":132,"type":"VEC3"},{"bufferView":11,"byteOffset":0,"componentType":5126,"count":132,"type":"VEC2"},{"bufferView":12,"byteOffset":0,"componentType":5123,"count":516,"type":"SCALAR"},{"bufferView":13,"byteOffset":0,"componentType":5126,"count":317,"max":[0.045774906873703,0.0200682058930397,0.00663843983784318],"min":[-0.04444737359881,-0.00369217060506,-0.00137393991463],"type":"VEC3"},{"bufferView":14,"byteOffset":0,"componentType":5126,"count":317,"type":"VEC3"},{"bufferView":15,"byteOffset":0,"componentType":5126,"count":317,"type":"VEC2"},{"bufferView":16,"byteOffset":0,"componentType":5123,"count":216,"type":"SCALAR"},{"bufferView":17,"byteOffset":0,"componentType":5126,"count":140,"max":[0.00668248767033219,0.0143664134666324,0.00109208025969565],"min":[-0.00668248953298,-0.01939770020545,-0.00089475658024],"type":"VEC3"},{"bufferView":18,"byteOffset":0,"componentType":5126,"count":140,"type":"VEC3"},{"bufferView":19,"byteOffset":0,"componentType":5126,"count":140,"type":"VEC2"}],"asset":{"generator":"FBX2glTF v0.13.1","version":"2.0"},"bufferViews":[{"buffer":0,"byteLength":29832,"byteOffset":0,"target":34963},{"buffer":0,"byteLength":101928,"byteOffset":29832,"target":34962},{"buffer":0,"byteLength":101928,"byteOffset":131760,"target":34962},{"buffer":0,"byteLength":67952,"byteOffset":233688,"target":34962},{"buffer":0,"byteLength":516,"byteOffset":301640,"target":34963},{"buffer":0,"byteLength":1896,"byteOffset":302156,"target":34962},{"buffer":0,"byteLength":1896,"byteOffset":304052,"target":34962},{"buffer":0,"byteLength":1264,"byteOffset":305948,"target":34962},{"buffer":0,"byteLength":456,"byteOffset":307212,"target":34963},{"buffer":0,"byteLength":1584,"byteOffset":307668,"target":34962},{"buffer":0,"byteLength":1584,"byteOffset":309252,"target":34962},{"buffer":0,"byteLength":1056,"byteOffset":310836,"target":34962},{"buffer":0,"byteLength":1032,"byteOffset":311892,"target":34963},{"buffer":0,"byteLength":3804,"byteOffset":312924,"target":34962},{"buffer":0,"byteLength":3804,"byteOffset":316728,"target":34962},{"buffer":0,"byteLength":2536,"byteOffset":320532,"target":34962},{"buffer":0,"byteLength":432,"byteOffset":323068,"target":34963},{"buffer":0,"byteLength":1680,"byteOffset":323500,"target":34962},{"buffer":0,"byteLength":1680,"byteOffset":325180,"target":34962},{"buffer":0,"byteLength":1120,"byteOffset":326860,"target":34962}],"buffers":[{"byteLength":327980,"uri":"Assault_Rifle_5.56_Prototype.bin"}],"images":[{"name":"Polygon_Texture_vol2","uri":"Polygon_Texture_vol2.png"}],"materials":[{"alphaMode":"OPAQUE","doubleSided":false,"extras":{"fromFBX":{"isTruePBR":false,"shadingModel":"Phong"}},"name":"main","pbrMetallicRoughness":{"baseColorFactor":[1,1,1,1],"baseColorTexture":{"index":0,"texCoord":0},"metallicFactor":0.400000005960464,"roughnessFactor":0.229415729641914}}],"meshes":[{"name":"Assault_Rifle_5.56_Prototype","primitives":[{"attributes":{"NORMAL":2,"POSITION":1,"TEXCOORD_0":3},"indices":0,"material":0,"mode":4}]},{"name":"SM_Trigger_Hook_Guard_For_Assault_Rifle_5,56_Prototype","primitives":[{"attributes":{"NORMAL":6,"POSITION":5,"TEXCOORD_0":7},"indices":4,"material":0,"mode":4}]},{"name":"SM_Trigger_Guard_For_Assault_Rifle_5,56_Prototype","primitives":[{"attributes":{"NORMAL":10,"POSITION":9,"TEXCOORD_0":11},"indices":8,"material":0,"mode":4}]},{"name":"SM_Lid_Gate_For_Assault_Rifle_5.56_Prototype","primitives":[{"attributes":{"NORMAL":14,"POSITION":13,"TEXCOORD_0":15},"indices":12,"material":0,"mode":4}]},{"name":"SM_Fuse_For_Assault_Rifle_5.56_Prototype","primitives":[{"attributes":{"NORMAL":18,"POSITION":17,"TEXCOORD_0":19},"indices":16,"material":0,"mode":4}]}],"nodes":[{"children":[1,2,3,4],"mesh":0,"name":"Assault_Rifle_5.56_Prototype","rotation":[0,0,0,1],"scale":[1,1,1],"translation":[11.0930023193359,1.0001186132431,-0.00136568362359]},{"mesh":1,"name":"SM_Trigger_Hook_Guard_For_Assault_Rifle_5,56_Prototype","rotation":[0,0,0,1],"scale":[1,1,1],"translation":[-0.06525512784719,0.0680973827838898,-0.00004453644215]},{"mesh":2,"name":"SM_Trigger_Guard_For_Assault_Rifle_5,56_Prototype","rotation":[0,0,0,1],"scale":[1,1,1],"translation":[-0.00470825191587,0.137617036700249,-0.00131695263553]},{"mesh":3,"name":"SM_Lid_Gate_For_Assault_Rifle_5.56_Prototype","rotation":[0,0,0,1],"scale":[1,1,1],"translation":[-0.12999999523163,0.111483760178089,-0.01590580679476]},{"mesh":4,"name":"SM_Fuse_For_Assault_Rifle_5.56_Prototype","rotation":[0,0,0,1],"scale":[1,1,1],"translation":[-0.02914550714195,0.0776258856058121,0.0112383766099811]}],"samplers":[{}],"scene":0,"scenes":[{"name":"Root Scene","nodes":[0]}],"textures":[{"name":"base_color_texture","sampler":0,"source":0}]}