{"accessors":[{"bufferView":0,"byteOffset":0,"componentType":5123,"count":12624,"type":"SCALAR"},{"bufferView":1,"byteOffset":0,"componentType":5126,"count":7627,"max":[0.285034328699112,0.117369741201401,0.0285389758646488],"min":[-0.58868527412415,-0.06101867556572,-0.02396667376161],"type":"VEC3"},{"bufferView":2,"byteOffset":0,"componentType":5126,"count":7627,"type":"VEC3"},{"bufferView":3,"byteOffset":0,"componentType":5126,"count":7627,"type":"VEC2"},{"bufferView":4,"byteOffset":0,"componentType":5123,"count":174,"type":"SCALAR"},{"bufferView":5,"byteOffset":0,"componentType":5126,"count":112,"max":[0.00393727561458945,0.0102134626358747,0.00457328464835882],"min":[-0.01134715043008,-0.03226803988218,-0.00000097481666],"type":"VEC3"},{"bufferView":6,"byteOffset":0,"componentType":5126,"count":112,"type":"VEC3"},{"bufferView":7,"byteOffset":0,"componentType":5126,"count":112,"type":"VEC2"},{"bufferView":8,"byteOffset":0,"componentType":5123,"count":354,"type":"SCALAR"},{"bufferView":9,"byteOffset":0,"componentType":5126,"count":215,"max":[0.00772672332823277,0.021200455725193,0],"min":[-0.06543006002903,-0.0077267321758,-0.00361195858568],"type":"VEC3"},{"bufferView":10,"byteOffset":0,"componentType":5126,"count":215,"type":"VEC3"},{"bufferView":11,"byteOffset":0,"componentType":5126,"count":215,"type":"VEC2"},{"bufferView":12,"byteOffset":0,"componentType":5123,"count":186,"type":"SCALAR"},{"bufferView":13,"byteOffset":0,"componentType":5126,"count":110,"max":[0.0525353811681271,0.0121906055137515,0.00601358758285642],"min":[-0.02188740484416,-0.00753047736362,-0.01266439724714],"type":"VEC3"},{"bufferView":14,"byteOffset":0,"componentType":5126,"count":110,"type":"VEC3"},{"bufferView":15,"byteOffset":0,"componentType":5126,"count":110,"type":"VEC2"}],"asset":{"generator":"FBX2glTF v0.13.1","version":"2.0"},"bufferViews":[{"buffer":0,"byteLength":25248,"byteOffset":0,"target":34963},{"buffer":0,"byteLength":91524,"byteOffset":25248,"target":34962},{"buffer":0,"byteLength":91524,"byteOffset":116772,"target":34962},{"buffer":0,"byteLength":61016,"byteOffset":208296,"target":34962},{"buffer":0,"byteLength":348,"byteOffset":269312,"target":34963},{"buffer":0,"byteLength":1344,"byteOffset":269660,"target":34962},{"buffer":0,"byteLength":1344,"byteOffset":271004,"target":34962},{"buffer":0,"byteLength":896,"byteOffset":272348,"target":34962},{"buffer":0,"byteLength":708,"byteOffset":273244,"target":34963},{"buffer":0,"byteLength":2580,"byteOffset":273952,"target":34962},{"buffer":0,"byteLength":2580,"byteOffset":276532,"target":34962},{"buffer":0,"byteLength":1720,"byteOffset":279112,"target":34962},{"buffer":0,"byteLength":372,"byteOffset":280832,"target":34963},{"buffer":0,"byteLength":1320,"byteOffset":281204,"target":34962},{"buffer":0,"byteLength":1320,"byteOffset":282524,"target":34962},{"buffer":0,"byteLength":880,"byteOffset":283844,"target":34962}],"buffers":[{"byteLength":284724,"uri":"SM_Assault_Rifle_9x39.bin"}],"images":[{"name":"Polygon_Texture_vol2","uri":"Polygon_Texture_vol2.png"}],"materials":[{"alphaMode":"OPAQUE","doubleSided":false,"extras":{"fromFBX":{"isTruePBR":false,"shadingModel":"Phong"}},"name":"main","pbrMetallicRoughness":{"baseColorFactor":[1,1,1,1],"baseColorTexture":{"index":0,"texCoord":0},"metallicFactor":0.400000005960464,"roughnessFactor":0.229415729641914}}],"meshes":[{"name":"SM_Assault_Rifle_9x39","primitives":[{"attributes":{"NORMAL":2,"POSITION":1,"TEXCOORD_0":3},"indices":0,"material":0,"mode":4}]},{"name":"SM_Trigger_Hook_For_Assault_Rifle_9x39","primitives":[{"attributes":{"NORMAL":6,"POSITION":5,"TEXCOORD_0":7},"indices":4,"material":0,"mode":4}]},{"name":"SM_Fuse_For_Assault_Rifle_9x39","primitives":[{"attributes":{"NORMAL":10,"POSITION":9,"TEXCOORD_0":11},"indices":8,"material":0,"mode":4}]},{"name":"SM_Trigger_For_Assault_Rifle_9x39","primitives":[{"attributes":{"NORMAL":14,"POSITION":13,"TEXCOORD_0":15},"indices":12,"material":0,"mode":4}]}],"nodes":[{"children":[1,2,3],"mesh":0,"name":"SM_Assault_Rifle_9x39","rotation":[0,0,0,1],"scale":[1,1,1],"translation":[11.0132846832275,0.631318330764771,-0.00100188038778]},{"mesh":1,"name":"SM_Trigger_Hook_For_Assault_Rifle_9x39","rotation":[0,0,0,1],"scale":[1,1,1],"translation":[-0.05781615898013,0.0612956620752811,-0.00000000007451]},{"mesh":2,"name":"SM_Fuse_For_Assault_Rifle_9x39","rotation":[0,0,0,1],"scale":[1,1,1],"translation":[-0.0369116216898,0.0676573514938354,-0.01803544908762]},{"mesh":3,"name":"SM_Trigger_For_Assault_Rifle_9x39","rotation":[0,0,0,1],"scale":[1,1,1],"translation":[-0.14947631955147,0.0876499563455582,-0.02015092037618]}],"samplers":[{}],"scene":0,"scenes":[{"name":"Root Scene","nodes":[0]}],"textures":[{"name":"base_color_texture","sampler":0,"source":0}]}