{"accessors":[{"bufferView":0,"byteOffset":0,"componentType":5123,"count":6198,"type":"SCALAR"},{"bufferView":1,"byteOffset":0,"componentType":5126,"count":3630,"max":[0.269029289484024,0.132127001881599,0.0176504626870155],"min":[-0.6597450375557,-0.05165100842714,-0.01765046268702],"type":"VEC3"},{"bufferView":2,"byteOffset":0,"componentType":5126,"count":3630,"type":"VEC3"},{"bufferView":3,"byteOffset":0,"componentType":5126,"count":3630,"type":"VEC2"},{"bufferView":4,"byteOffset":0,"componentType":5123,"count":84,"type":"SCALAR"},{"bufferView":5,"byteOffset":0,"componentType":5126,"count":54,"max":[0.00086185906548053,0.0109531404450536,0.00120434246491641],"min":[-0.13096064329147,-0.02677982486784,-0.00120434677228],"type":"VEC3"},{"bufferView":6,"byteOffset":0,"componentType":5126,"count":54,"type":"VEC3"},{"bufferView":7,"byteOffset":0,"componentType":5126,"count":54,"type":"VEC2"},{"bufferView":8,"byteOffset":0,"componentType":5123,"count":168,"type":"SCALAR"},{"bufferView":9,"byteOffset":0,"componentType":5126,"count":104,"max":[0.0422873012721539,0.0129684209823608,0.0143200941383839],"min":[-0.03866149485111,-0.01663180626929,-0.00590872531757],"type":"VEC3"},{"bufferView":10,"byteOffset":0,"componentType":5126,"count":104,"type":"VEC3"},{"bufferView":11,"byteOffset":0,"componentType":5126,"count":104,"type":"VEC2"},{"bufferView":12,"byteOffset":0,"componentType":5123,"count":108,"type":"SCALAR"},{"bufferView":13,"byteOffset":0,"componentType":5126,"count":68,"max":[0.00285467877984047,0.000000104747094553659,0.00273570674471557],"min":[-0.00556465238333,-0.02117549069226,-0.00273570674472],"type":"VEC3"},{"bufferView":14,"byteOffset":0,"componentType":5126,"count":68,"type":"VEC3"},{"bufferView":15,"byteOffset":0,"componentType":5126,"count":68,"type":"VEC2"}],"asset":{"generator":"FBX2glTF v0.13.1","version":"2.0"},"bufferViews":[{"buffer":0,"byteLength":12396,"byteOffset":0,"target":34963},{"buffer":0,"byteLength":43560,"byteOffset":12396,"target":34962},{"buffer":0,"byteLength":43560,"byteOffset":55956,"target":34962},{"buffer":0,"byteLength":29040,"byteOffset":99516,"target":34962},{"buffer":0,"byteLength":168,"byteOffset":128556,"target":34963},{"buffer":0,"byteLength":648,"byteOffset":128724,"target":34962},{"buffer":0,"byteLength":648,"byteOffset":129372,"target":34962},{"buffer":0,"byteLength":432,"byteOffset":130020,"target":34962},{"buffer":0,"byteLength":336,"byteOffset":130452,"target":34963},{"buffer":0,"byteLength":1248,"byteOffset":130788,"target":34962},{"buffer":0,"byteLength":1248,"byteOffset":132036,"target":34962},{"buffer":0,"byteLength":832,"byteOffset":133284,"target":34962},{"buffer":0,"byteLength":216,"byteOffset":134116,"target":34963},{"buffer":0,"byteLength":816,"byteOffset":134332,"target":34962},{"buffer":0,"byteLength":816,"byteOffset":135148,"target":34962},{"buffer":0,"byteLength":544,"byteOffset":135964,"target":34962}],"buffers":[{"byteLength":136508,"uri":"SM_Assault_Rifle_5,45.bin"}],"images":[{"name":"Polygon_Texture_vol2","uri":"Polygon_Texture_vol2.png"}],"materials":[{"alphaMode":"OPAQUE","doubleSided":false,"extras":{"fromFBX":{"isTruePBR":false,"shadingModel":"Phong"}},"name":"main","pbrMetallicRoughness":{"baseColorFactor":[1,1,1,1],"baseColorTexture":{"index":0,"texCoord":0},"metallicFactor":0.400000005960464,"roughnessFactor":0.229415729641914}}],"meshes":[{"name":"SM_Assault_Rifle_5,45","primitives":[{"attributes":{"NORMAL":2,"POSITION":1,"TEXCOORD_0":3},"indices":0,"material":0,"mode":4}]},{"name":"SM_Fuse_For_Assault_Rifle_5,45","primitives":[{"attributes":{"NORMAL":6,"POSITION":5,"TEXCOORD_0":7},"indices":4,"material":0,"mode":4}]},{"name":"SM_Gate_For_Assault_Rifle_5,45","primitives":[{"attributes":{"NORMAL":10,"POSITION":9,"TEXCOORD_0":11},"indices":8,"material":0,"mode":4}]},{"name":"SM_Trigger_For_Assault_Rifle_5,45","primitives":[{"attributes":{"NORMAL":14,"POSITION":13,"TEXCOORD_0":15},"indices":12,"material":0,"mode":4}]}],"nodes":[{"children":[1,2,3],"mesh":0,"name":"SM_Assault_Rifle_5,45","rotation":[0,0,0,1],"scale":[1,1,1],"translation":[11.1786785125732,1.64068078994751,0.000000000363797880709171]},{"mesh":1,"name":"SM_Fuse_For_Assault_Rifle_5,45","rotation":[0,0,0,1],"scale":[1,1,1],"translation":[-0.03302734345198,0.0876214578747749,0.0145390862599015]},{"mesh":2,"name":"SM_Gate_For_Assault_Rifle_5,45","rotation":[0,0,0,1],"scale":[1,1,1],"translation":[-0.2041589319706,0.112482756376266,0.0102149583399296]},{"mesh":3,"name":"SM_Trigger_For_Assault_Rifle_5,45","rotation":[0,0,0,1],"scale":[1,1,1],"translation":[-0.0632665976882,0.0575530976057053,-0.0000000003638]}],"samplers":[{}],"scene":0,"scenes":[{"name":"Root Scene","nodes":[0]}],"textures":[{"name":"base_color_texture","sampler":0,"source":0}]}