{"accessors":[{"bufferView":0,"byteOffset":0,"componentType":5123,"count":4674,"type":"SCALAR"},{"bufferView":1,"byteOffset":0,"componentType":5126,"count":2832,"max":[0.312251895666122,0.0707050859928131,0.0252419915050268],"min":[-0.93646758794785,-0.09927260875702,-0.02498499117792],"type":"VEC3"},{"bufferView":2,"byteOffset":0,"componentType":5126,"count":2832,"type":"VEC3"},{"bufferView":3,"byteOffset":0,"componentType":5126,"count":2832,"type":"VEC2"},{"bufferView":4,"byteOffset":0,"componentType":5123,"count":636,"type":"SCALAR"},{"bufferView":5,"byteOffset":0,"componentType":5126,"count":396,"max":[0.0232812594622374,0.00820746272802353,0.00820733606815338],"min":[-0.11404164135456,-0.04731759428978,-0.0351833961904],"type":"VEC3"},{"bufferView":6,"byteOffset":0,"componentType":5126,"count":396,"type":"VEC3"},{"bufferView":7,"byteOffset":0,"componentType":5126,"count":396,"type":"VEC2"},{"bufferView":8,"byteOffset":0,"componentType":5123,"count":102,"type":"SCALAR"},{"bufferView":9,"byteOffset":0,"componentType":5126,"count":68,"max":[0.00183522561565042,-0.00000000860951,0.00115248840302229],"min":[-0.00357223185711,-0.01620292104781,-0.00115248933434],"type":"VEC3"},{"bufferView":10,"byteOffset":0,"componentType":5126,"count":68,"type":"VEC3"},{"bufferView":11,"byteOffset":0,"componentType":5126,"count":68,"type":"VEC2"}],"asset":{"generator":"FBX2glTF v0.13.1","version":"2.0"},"bufferViews":[{"buffer":0,"byteLength":9348,"byteOffset":0,"target":34963},{"buffer":0,"byteLength":33984,"byteOffset":9348,"target":34962},{"buffer":0,"byteLength":33984,"byteOffset":43332,"target":34962},{"buffer":0,"byteLength":22656,"byteOffset":77316,"target":34962},{"buffer":0,"byteLength":1272,"byteOffset":99972,"target":34963},{"buffer":0,"byteLength":4752,"byteOffset":101244,"target":34962},{"buffer":0,"byteLength":4752,"byteOffset":105996,"target":34962},{"buffer":0,"byteLength":3168,"byteOffset":110748,"target":34962},{"buffer":0,"byteLength":204,"byteOffset":113916,"target":34963},{"buffer":0,"byteLength":816,"byteOffset":114120,"target":34962},{"buffer":0,"byteLength":816,"byteOffset":114936,"target":34962},{"buffer":0,"byteLength":544,"byteOffset":115752,"target":34962}],"buffers":[{"byteLength":116296,"uri":"SM_Hunting_Sniper_Rifle.bin"}],"images":[{"name":"Polygon_Texture_vol2","uri":"Polygon_Texture_vol2.png"}],"materials":[{"alphaMode":"OPAQUE","doubleSided":false,"extras":{"fromFBX":{"isTruePBR":false,"shadingModel":"Phong"}},"name":"main","pbrMetallicRoughness":{"baseColorFactor":[1,1,1,1],"baseColorTexture":{"index":0,"texCoord":0},"metallicFactor":0.400000005960464,"roughnessFactor":0.229415729641914}}],"meshes":[{"name":"SM_Hunting_Sniper_Rifle","primitives":[{"attributes":{"NORMAL":2,"POSITION":1,"TEXCOORD_0":3},"indices":0,"material":0,"mode":4}]},{"name":"SM_Gate_For_Gunting_Sniper_Rifle","primitives":[{"attributes":{"NORMAL":6,"POSITION":5,"TEXCOORD_0":7},"indices":4,"material":0,"mode":4}]},{"name":"SM_Trigger_Guard_For_Hunting_Sniper_rifle","primitives":[{"attributes":{"NORMAL":10,"POSITION":9,"TEXCOORD_0":11},"indices":8,"material":0,"mode":4}]}],"nodes":[{"children":[1,2],"mesh":0,"name":"SM_Hunting_Sniper_Rifle","rotation":[0,0,0,1],"scale":[1,1,1],"translation":[8.64196968078613,1.52057123184204,-0.00000000139698]},{"mesh":1,"name":"SM_Gate_For_Gunting_Sniper_Rifle","rotation":[0,0,0,1],"scale":[1,1,1],"translation":[-0.05894286930561,0.0538211055099964,0.00000000683294265613199]},{"mesh":2,"name":"SM_Trigger_Guard_For_Hunting_Sniper_rifle","rotation":[0,0,0,1],"scale":[1,1,1],"translation":[-0.08107238262892,-0.00773193361238,0]}],"samplers":[{}],"scene":0,"scenes":[{"name":"Root Scene","nodes":[0]}],"textures":[{"name":"base_color_texture","sampler":0,"source":0}]}