{"accessors":[{"bufferView":0,"byteOffset":0,"componentType":5123,"count":13455,"type":"SCALAR"},{"bufferView":1,"byteOffset":0,"componentType":5126,"count":7645,"max":[0.0641126856207848,0.121037788689137,0.0201750639826059],"min":[-0.2363558858633,-0.0442096889019,-0.01745243184268],"type":"VEC3"},{"bufferView":2,"byteOffset":0,"componentType":5126,"count":7645,"type":"VEC3"},{"bufferView":3,"byteOffset":0,"componentType":5126,"count":7645,"type":"VEC2"},{"bufferView":4,"byteOffset":0,"componentType":5123,"count":4200,"type":"SCALAR"},{"bufferView":5,"byteOffset":0,"componentType":5126,"count":2184,"max":[0.0635121688246727,0.0285065285861492,0.0138731449842453],"min":[-0.1767622679472,-0.02376609481871,-0.01406367775053],"type":"VEC3"},{"bufferView":6,"byteOffset":0,"componentType":5126,"count":2184,"type":"VEC3"},{"bufferView":7,"byteOffset":0,"componentType":5126,"count":2184,"type":"VEC2"},{"bufferView":8,"byteOffset":0,"componentType":5123,"count":1050,"type":"SCALAR"},{"bufferView":9,"byteOffset":0,"componentType":5126,"count":568,"max":[0.00888489186763763,0.00855788215994835,0.0018454606179148],"min":[-0.02757908031344,-0.00842494424433,-0.00246114842594],"type":"VEC3"},{"bufferView":10,"byteOffset":0,"componentType":5126,"count":568,"type":"VEC3"},{"bufferView":11,"byteOffset":0,"componentType":5126,"count":568,"type":"VEC2"},{"bufferView":12,"byteOffset":0,"componentType":5123,"count":102,"type":"SCALAR"},{"bufferView":13,"byteOffset":0,"componentType":5126,"count":68,"max":[0.00637181429192424,0.00010534189641475,0.00263119931332767],"min":[-0.00651226844639,-0.02865020930767,-0.00263119954616],"type":"VEC3"},{"bufferView":14,"byteOffset":0,"componentType":5126,"count":68,"type":"VEC3"},{"bufferView":15,"byteOffset":0,"componentType":5126,"count":68,"type":"VEC2"}],"asset":{"generator":"FBX2glTF v0.13.1","version":"2.0"},"bufferViews":[{"buffer":0,"byteLength":26910,"byteOffset":0,"target":34963},{"buffer":0,"byteLength":91740,"byteOffset":26912,"target":34962},{"buffer":0,"byteLength":91740,"byteOffset":118652,"target":34962},{"buffer":0,"byteLength":61160,"byteOffset":210392,"target":34962},{"buffer":0,"byteLength":8400,"byteOffset":271552,"target":34963},{"buffer":0,"byteLength":26208,"byteOffset":279952,"target":34962},{"buffer":0,"byteLength":26208,"byteOffset":306160,"target":34962},{"buffer":0,"byteLength":17472,"byteOffset":332368,"target":34962},{"buffer":0,"byteLength":2100,"byteOffset":349840,"target":34963},{"buffer":0,"byteLength":6816,"byteOffset":351940,"target":34962},{"buffer":0,"byteLength":6816,"byteOffset":358756,"target":34962},{"buffer":0,"byteLength":4544,"byteOffset":365572,"target":34962},{"buffer":0,"byteLength":204,"byteOffset":370116,"target":34963},{"buffer":0,"byteLength":816,"byteOffset":370320,"target":34962},{"buffer":0,"byteLength":816,"byteOffset":371136,"target":34962},{"buffer":0,"byteLength":544,"byteOffset":371952,"target":34962}],"buffers":[{"byteLength":372496,"uri":"SM_Hunting_Pistol.bin"}],"images":[{"name":"Polygon_Texture_vol2","uri":"Polygon_Texture_vol2.png"}],"materials":[{"alphaMode":"OPAQUE","doubleSided":false,"extras":{"fromFBX":{"isTruePBR":false,"shadingModel":"Phong"}},"name":"main","pbrMetallicRoughness":{"baseColorFactor":[1,1,1,1],"baseColorTexture":{"index":0,"texCoord":0},"metallicFactor":0.400000005960464,"roughnessFactor":0.229415729641914}}],"meshes":[{"name":"SM_Hunting_Pistol","primitives":[{"attributes":{"NORMAL":2,"POSITION":1,"TEXCOORD_0":3},"indices":0,"material":0,"mode":4}]},{"name":"SM_Bolt_For_Hunting_Pistol","primitives":[{"attributes":{"NORMAL":6,"POSITION":5,"TEXCOORD_0":7},"indices":4,"material":0,"mode":4}]},{"name":"SM_Fuse_For_Hunting_Pistol","primitives":[{"attributes":{"NORMAL":10,"POSITION":9,"TEXCOORD_0":11},"indices":8,"material":0,"mode":4}]},{"name":"SM_Trigger_Hook_For_Hunting_Pistol","primitives":[{"attributes":{"NORMAL":14,"POSITION":13,"TEXCOORD_0":15},"indices":12,"material":0,"mode":4}]}],"nodes":[{"children":[1,3],"mesh":0,"name":"SM_Hunting_Pistol","rotation":[0,0,0,1],"scale":[1,1,1],"translation":[7.43564796447754,0.279491156339645,0.000000000512227427140743]},{"children":[2],"mesh":1,"name":"SM_Bolt_For_Hunting_Pistol","rotation":[0,0,0,1],"scale":[1,1,1],"translation":[-0.02512939460576,0.0933357998728752,0.0000952649934333749]},{"mesh":2,"name":"SM_Fuse_For_Hunting_Pistol","rotation":[0.707106828689575,0,0,0.707106709480286],"scale":[0.00999999977648258,0.00999999977648258,0.00999999977648258],"translation":[0.0252249427139759,-0.0934866964817,0.00088026456069201]},{"mesh":3,"name":"SM_Trigger_Hook_For_Hunting_Pistol","rotation":[0,0,0,1],"scale":[1,1,1],"translation":[-0.06107421591878,0.063700944185257,-0.00027135320124]}],"samplers":[{}],"scene":0,"scenes":[{"name":"Root Scene","nodes":[0]}],"textures":[{"name":"base_color_texture","sampler":0,"source":0}]}