{"accessors":[{"bufferView":0,"byteOffset":0,"componentType":5123,"count":84,"type":"SCALAR"},{"bufferView":1,"byteOffset":0,"componentType":5126,"count":56,"max":[0.0318071991205215,0.00949975475668907,0.00782277714461088],"min":[-0.0307362023741,-0.03886863589287,-0.00782277993858],"type":"VEC3"},{"bufferView":2,"byteOffset":0,"componentType":5126,"count":56,"type":"VEC3"},{"bufferView":3,"byteOffset":0,"componentType":5126,"count":56,"type":"VEC2"}],"asset":{"generator":"FBX2glTF v0.13.1","version":"2.0"},"bufferViews":[{"buffer":0,"byteLength":168,"byteOffset":0,"target":34963},{"buffer":0,"byteLength":672,"byteOffset":168,"target":34962},{"buffer":0,"byteLength":672,"byteOffset":840,"target":34962},{"buffer":0,"byteLength":448,"byteOffset":1512,"target":34962}],"buffers":[{"byteLength":1960,"uri":"SM_Magazine_For_HuntingSniper_Rifle.bin"}],"images":[{"name":"Polygon_Texture_vol2","uri":"Polygon_Texture_vol2.png"}],"materials":[{"alphaMode":"OPAQUE","doubleSided":false,"extras":{"fromFBX":{"isTruePBR":false,"shadingModel":"Phong"}},"name":"main","pbrMetallicRoughness":{"baseColorFactor":[1,1,1,1],"baseColorTexture":{"index":0,"texCoord":0},"metallicFactor":0.400000005960464,"roughnessFactor":0.229415729641914}}],"meshes":[{"name":"SM_Magazine_For_HuntingSniper_Rifle","primitives":[{"attributes":{"NORMAL":2,"POSITION":1,"TEXCOORD_0":3},"indices":0,"material":0,"mode":4}]}],"nodes":[{"mesh":0,"name":"SM_Magazine_For_HuntingSniper_Rifle","rotation":[0,0,0,1],"scale":[1,1,1],"translation":[13.4188947677612,0.0539112091064453,-0.00000000866103]}],"samplers":[{}],"scene":0,"scenes":[{"name":"Root Scene","nodes":[0]}],"textures":[{"name":"base_color_texture","sampler":0,"source":0}]}