{"accessors":[{"bufferView":0,"byteOffset":0,"componentType":5123,"count":1092,"type":"SCALAR"},{"bufferView":1,"byteOffset":0,"componentType":5126,"count":654,"max":[0.0407881662249565,0.0780305042862892,0.0156708974391222],"min":[-0.03968020156026,-0.08874686062336,-0.01567089743912],"type":"VEC3"},{"bufferView":2,"byteOffset":0,"componentType":5126,"count":654,"type":"VEC3"},{"bufferView":3,"byteOffset":0,"componentType":5126,"count":654,"type":"VEC2"}],"asset":{"generator":"FBX2glTF v0.13.1","version":"2.0"},"bufferViews":[{"buffer":0,"byteLength":2184,"byteOffset":0,"target":34963},{"buffer":0,"byteLength":7848,"byteOffset":2184,"target":34962},{"buffer":0,"byteLength":7848,"byteOffset":10032,"target":34962},{"buffer":0,"byteLength":5232,"byteOffset":17880,"target":34962}],"buffers":[{"byteLength":23112,"uri":"SM_Magazine_For_Assault_Rifle_5,56.bin"}],"images":[{"name":"Polygon_Texture_vol2","uri":"Polygon_Texture_vol2.png"}],"materials":[{"alphaMode":"OPAQUE","doubleSided":false,"extras":{"fromFBX":{"isTruePBR":false,"shadingModel":"Phong"}},"name":"main","pbrMetallicRoughness":{"baseColorFactor":[1,1,1,1],"baseColorTexture":{"index":0,"texCoord":0},"metallicFactor":0.400000005960464,"roughnessFactor":0.229415729641914}}],"meshes":[{"name":"SM_Magazine_For_Assault_Rifle_5,56","primitives":[{"attributes":{"NORMAL":2,"POSITION":1,"TEXCOORD_0":3},"indices":0,"material":0,"mode":4}]}],"nodes":[{"mesh":0,"name":"SM_Magazine_For_Assault_Rifle_5,56","rotation":[0,0,0,1],"scale":[1,1,1],"translation":[13.2681798934937,1.28633546829224,-0.00141797028482]}],"samplers":[{}],"scene":0,"scenes":[{"name":"Root Scene","nodes":[0]}],"textures":[{"name":"base_color_texture","sampler":0,"source":0}]}