{"accessors":[{"bufferView":0,"byteOffset":0,"componentType":5123,"count":22752,"type":"SCALAR"},{"bufferView":1,"byteOffset":0,"componentType":5126,"count":12304,"max":[0.297518819570541,0.106888927519321,0.0348679535090923],"min":[-0.20189307630062,-0.06649495661259,-0.03486795350909],"type":"VEC3"},{"bufferView":2,"byteOffset":0,"componentType":5126,"count":12304,"type":"VEC3"},{"bufferView":3,"byteOffset":0,"componentType":5126,"count":12304,"type":"VEC2"},{"bufferView":4,"byteOffset":0,"componentType":5123,"count":78,"type":"SCALAR"},{"bufferView":5,"byteOffset":0,"componentType":5126,"count":50,"max":[0.0163000673055649,0.0149578982964158,0.00473716575652361],"min":[-0.02121576666832,-0.01468010619283,-0.00473716622218],"type":"VEC3"},{"bufferView":6,"byteOffset":0,"componentType":5126,"count":50,"type":"VEC3"},{"bufferView":7,"byteOffset":0,"componentType":5126,"count":50,"type":"VEC2"},{"bufferView":8,"byteOffset":0,"componentType":5123,"count":900,"type":"SCALAR"},{"bufferView":9,"byteOffset":0,"componentType":5126,"count":540,"max":[0.106789246201515,0.0100193917751312,0.0356053747236729],"min":[-0.01843716017902,-0.01001937594265,-0.03560539707541],"type":"VEC3"},{"bufferView":10,"byteOffset":0,"componentType":5126,"count":540,"type":"VEC3"},{"bufferView":11,"byteOffset":0,"componentType":5126,"count":540,"type":"VEC2"},{"bufferView":12,"byteOffset":0,"componentType":5123,"count":216,"type":"SCALAR"},{"bufferView":13,"byteOffset":0,"componentType":5126,"count":134,"max":[0.0216859150677919,0.00648964382708073,0.0214212536811829],"min":[-0.01284120976925,0.00041548628360033,-0.02142125368118],"type":"VEC3"},{"bufferView":14,"byteOffset":0,"componentType":5126,"count":134,"type":"VEC3"},{"bufferView":15,"byteOffset":0,"componentType":5126,"count":134,"type":"VEC2"}],"asset":{"generator":"FBX2glTF v0.13.1","version":"2.0"},"bufferViews":[{"buffer":0,"byteLength":45504,"byteOffset":0,"target":34963},{"buffer":0,"byteLength":147648,"byteOffset":45504,"target":34962},{"buffer":0,"byteLength":147648,"byteOffset":193152,"target":34962},{"buffer":0,"byteLength":98432,"byteOffset":340800,"target":34962},{"buffer":0,"byteLength":156,"byteOffset":439232,"target":34963},{"buffer":0,"byteLength":600,"byteOffset":439388,"target":34962},{"buffer":0,"byteLength":600,"byteOffset":439988,"target":34962},{"buffer":0,"byteLength":400,"byteOffset":440588,"target":34962},{"buffer":0,"byteLength":1800,"byteOffset":440988,"target":34963},{"buffer":0,"byteLength":6480,"byteOffset":442788,"target":34962},{"buffer":0,"byteLength":6480,"byteOffset":449268,"target":34962},{"buffer":0,"byteLength":4320,"byteOffset":455748,"target":34962},{"buffer":0,"byteLength":432,"byteOffset":460068,"target":34963},{"buffer":0,"byteLength":1608,"byteOffset":460500,"target":34962},{"buffer":0,"byteLength":1608,"byteOffset":462108,"target":34962},{"buffer":0,"byteLength":1072,"byteOffset":463716,"target":34962}],"buffers":[{"byteLength":464788,"uri":"SM_Police_Submachine_Gun.bin"}],"images":[{"name":"Polygon_Texture_vol2","uri":"Polygon_Texture_vol2.png"}],"materials":[{"alphaMode":"OPAQUE","doubleSided":false,"extras":{"fromFBX":{"isTruePBR":false,"shadingModel":"Phong"}},"name":"main","pbrMetallicRoughness":{"baseColorFactor":[1,1,1,1],"baseColorTexture":{"index":0,"texCoord":0},"metallicFactor":0.400000005960464,"roughnessFactor":0.229415729641914}}],"meshes":[{"name":"SM_Police_Submachine_Gun","primitives":[{"attributes":{"NORMAL":2,"POSITION":1,"TEXCOORD_0":3},"indices":0,"material":0,"mode":4}]},{"name":"SM_Trigger_Hook_For_Police_Submachine_Gun","primitives":[{"attributes":{"NORMAL":6,"POSITION":5,"TEXCOORD_0":7},"indices":4,"material":0,"mode":4}]},{"name":"SM_Trigger_For_Police_Submachine_Gun","primitives":[{"attributes":{"NORMAL":10,"POSITION":9,"TEXCOORD_0":11},"indices":8,"material":0,"mode":4}]},{"name":"SM_Fuse_For_Police_Submachine_Gun","primitives":[{"attributes":{"NORMAL":14,"POSITION":13,"TEXCOORD_0":15},"indices":12,"material":0,"mode":4}]}],"nodes":[{"children":[1,2,3],"mesh":0,"name":"SM_Police_Submachine_Gun","rotation":[0,0,0,1],"scale":[1,1,0.730602502822876],"translation":[3.58378410339355,0.901950597763062,0.00000000107102093860334]},{"mesh":1,"name":"SM_Trigger_Hook_For_Police_Submachine_Gun","rotation":[0,0,0,1],"scale":[0.99999988079071,0.99999988079071,0.99999988079071],"translation":[-0.03413757309318,0.00128768919967115,-0.00000000155907]},{"mesh":2,"name":"SM_Trigger_For_Police_Submachine_Gun","rotation":[0,0,0,1],"scale":[0.99999988079071,0.99999988079071,0.99999988079071],"translation":[-0.11483611911535,0.0306172166019678,0.00000000977342740071663]},{"mesh":3,"name":"SM_Fuse_For_Police_Submachine_Gun","rotation":[0,0,0,1],"scale":[0.99999988079071,0.99999988079071,1.36873316764832],"translation":[-0.03981506079435,-0.02088851854205,-0.00000000146594]}],"samplers":[{}],"scene":0,"scenes":[{"name":"Root Scene","nodes":[0]}],"textures":[{"name":"base_color_texture","sampler":0,"source":0}]}