{"accessors":[{"bufferView":0,"byteOffset":0,"componentType":5123,"count":8538,"type":"SCALAR"},{"bufferView":1,"byteOffset":0,"componentType":5126,"count":5230,"max":[0.045626986771822,0.074199415743351,0.0112031241878867],"min":[-0.17080970108509,-0.0512611605227,-0.00946124829352],"type":"VEC3"},{"bufferView":2,"byteOffset":0,"componentType":5126,"count":5230,"type":"VEC3"},{"bufferView":3,"byteOffset":0,"componentType":5126,"count":5230,"type":"VEC2"},{"bufferView":4,"byteOffset":0,"componentType":5123,"count":138,"type":"SCALAR"},{"bufferView":5,"byteOffset":0,"componentType":5126,"count":92,"max":[0.00659566558897495,0.0105023216456175,0.00205319467931986],"min":[-0.0049599185586,-0.01239842362702,-0.00205319467932],"type":"VEC3"},{"bufferView":6,"byteOffset":0,"componentType":5126,"count":92,"type":"VEC3"},{"bufferView":7,"byteOffset":0,"componentType":5126,"count":92,"type":"VEC2"},{"bufferView":8,"byteOffset":0,"componentType":5123,"count":2592,"type":"SCALAR"},{"bufferView":9,"byteOffset":0,"componentType":5126,"count":1515,"max":[0.0181669667363167,0.0814581364393234,0.00859387591481209],"min":[-0.16885083913803,0.0417561084032059,-0.00859387591481],"type":"VEC3"},{"bufferView":10,"byteOffset":0,"componentType":5126,"count":1515,"type":"VEC3"},{"bufferView":11,"byteOffset":0,"componentType":5126,"count":1515,"type":"VEC2"},{"bufferView":12,"byteOffset":0,"componentType":5123,"count":174,"type":"SCALAR"},{"bufferView":13,"byteOffset":0,"componentType":5126,"count":112,"max":[0.0199637115001678,0.00883409380912781,0.00273385760374367],"min":[-0.00148912519217,-0.00452671200037,-0.00273385783657],"type":"VEC3"},{"bufferView":14,"byteOffset":0,"componentType":5126,"count":112,"type":"VEC3"},{"bufferView":15,"byteOffset":0,"componentType":5126,"count":112,"type":"VEC2"}],"asset":{"generator":"FBX2glTF v0.13.1","version":"2.0"},"bufferViews":[{"buffer":0,"byteLength":17076,"byteOffset":0,"target":34963},{"buffer":0,"byteLength":62760,"byteOffset":17076,"target":34962},{"buffer":0,"byteLength":62760,"byteOffset":79836,"target":34962},{"buffer":0,"byteLength":41840,"byteOffset":142596,"target":34962},{"buffer":0,"byteLength":276,"byteOffset":184436,"target":34963},{"buffer":0,"byteLength":1104,"byteOffset":184712,"target":34962},{"buffer":0,"byteLength":1104,"byteOffset":185816,"target":34962},{"buffer":0,"byteLength":736,"byteOffset":186920,"target":34962},{"buffer":0,"byteLength":5184,"byteOffset":187656,"target":34963},{"buffer":0,"byteLength":18180,"byteOffset":192840,"target":34962},{"buffer":0,"byteLength":18180,"byteOffset":211020,"target":34962},{"buffer":0,"byteLength":12120,"byteOffset":229200,"target":34962},{"buffer":0,"byteLength":348,"byteOffset":241320,"target":34963},{"buffer":0,"byteLength":1344,"byteOffset":241668,"target":34962},{"buffer":0,"byteLength":1344,"byteOffset":243012,"target":34962},{"buffer":0,"byteLength":896,"byteOffset":244356,"target":34962}],"buffers":[{"byteLength":245252,"uri":"SM_Police_Gun.bin"}],"images":[{"name":"Polygon_Texture_vol2","uri":"Polygon_Texture_vol2.png"}],"materials":[{"alphaMode":"OPAQUE","doubleSided":false,"extras":{"fromFBX":{"isTruePBR":false,"shadingModel":"Phong"}},"name":"main","pbrMetallicRoughness":{"baseColorFactor":[1,1,1,1],"baseColorTexture":{"index":0,"texCoord":0},"metallicFactor":0.400000005960464,"roughnessFactor":0.229415729641914}}],"meshes":[{"name":"SM_Police_Gun","primitives":[{"attributes":{"NORMAL":2,"POSITION":1,"TEXCOORD_0":3},"indices":0,"material":0,"mode":4}]},{"name":"SM_Trigger_Hook_For_Police_Gun","primitives":[{"attributes":{"NORMAL":6,"POSITION":5,"TEXCOORD_0":7},"indices":4,"material":0,"mode":4}]},{"name":"SM_Bolt_For_Police_Gun","primitives":[{"attributes":{"NORMAL":10,"POSITION":9,"TEXCOORD_0":11},"indices":8,"material":0,"mode":4}]},{"name":"SM_Trigger_For_Police_Gun","primitives":[{"attributes":{"NORMAL":14,"POSITION":13,"TEXCOORD_0":15},"indices":12,"material":0,"mode":4}]}],"nodes":[{"children":[1,2,3],"mesh":0,"name":"SM_Police_Gun","rotation":[0,0,0,1],"scale":[1,1,1],"translation":[7.42807531356812,0.0936313420534134,0.00000000038417055647777]},{"mesh":1,"name":"SM_Trigger_Hook_For_Police_Gun","rotation":[0,0,0,1],"scale":[1,1,1],"translation":[-0.0455377176404,0.0266971495002508,-0.000000000195]},{"mesh":2,"name":"SM_Bolt_For_Police_Gun","rotation":[0,0,0,1],"scale":[1,1,1],"translation":[0.000000610351548857579,0,0.0000000000000000355271359939116]},{"mesh":3,"name":"SM_Trigger_For_Police_Gun","rotation":[0,0,0,1],"scale":[1,1,1],"translation":[0.00912536587566137,0.0638381838798523,-0.00000000044238]}],"samplers":[{}],"scene":0,"scenes":[{"name":"Root Scene","nodes":[0]}],"textures":[{"name":"base_color_texture","sampler":0,"source":0}]}