{"accessors":[{"bufferView":0,"byteOffset":0,"componentType":5123,"count":4776,"type":"SCALAR"},{"bufferView":1,"byteOffset":0,"componentType":5126,"count":3050,"max":[0.0498860441148281,0.091557078063488,0.0134155880659819],"min":[-0.07450609654188,-0.14093664288521,-0.03261645883322],"type":"VEC3"},{"bufferView":2,"byteOffset":0,"componentType":5126,"count":3050,"type":"VEC3"},{"bufferView":3,"byteOffset":0,"componentType":5126,"count":3050,"type":"VEC2"}],"asset":{"generator":"FBX2glTF v0.13.1","version":"2.0"},"bufferViews":[{"buffer":0,"byteLength":9552,"byteOffset":0,"target":34963},{"buffer":0,"byteLength":36600,"byteOffset":9552,"target":34962},{"buffer":0,"byteLength":36600,"byteOffset":46152,"target":34962},{"buffer":0,"byteLength":24400,"byteOffset":82752,"target":34962}],"buffers":[{"byteLength":107152,"uri":"SM_Paired_For_Assault_Rifle_5,45.bin"}],"images":[{"name":"Polygon_Texture_vol2","uri":"Polygon_Texture_vol2.png"}],"materials":[{"alphaMode":"OPAQUE","doubleSided":false,"extras":{"fromFBX":{"isTruePBR":false,"shadingModel":"Phong"}},"name":"main","pbrMetallicRoughness":{"baseColorFactor":[1,1,1,1],"baseColorTexture":{"index":0,"texCoord":0},"metallicFactor":0.400000005960464,"roughnessFactor":0.229415729641914}}],"meshes":[{"name":"SM_Paired_For_Assault_Rifle_5,45","primitives":[{"attributes":{"NORMAL":2,"POSITION":1,"TEXCOORD_0":3},"indices":0,"material":0,"mode":4}]}],"nodes":[{"mesh":0,"name":"SM_Paired_For_Assault_Rifle_5,45","rotation":[0,0,0,1],"scale":[1,1,1],"translation":[13.2115325927734,0.42382949590683,0.013776421546936]}],"samplers":[{}],"scene":0,"scenes":[{"name":"Root Scene","nodes":[0]}],"textures":[{"name":"base_color_texture","sampler":0,"source":0}]}