{"accessors":[{"bufferView":0,"byteOffset":0,"componentType":5123,"count":4362,"type":"SCALAR"},{"bufferView":1,"byteOffset":0,"componentType":5126,"count":2503,"max":[0.0534720793366432,0.0366647988557816,0.0265269577503204],"min":[-0.04236079007387,-0.00431056972593,-0.01518218033016],"type":"VEC3"},{"bufferView":2,"byteOffset":0,"componentType":5126,"count":2503,"type":"VEC3"},{"bufferView":3,"byteOffset":0,"componentType":5126,"count":2503,"type":"VEC2"}],"asset":{"generator":"FBX2glTF v0.13.1","version":"2.0"},"bufferViews":[{"buffer":0,"byteLength":8724,"byteOffset":0,"target":34963},{"buffer":0,"byteLength":30036,"byteOffset":8724,"target":34962},{"buffer":0,"byteLength":30036,"byteOffset":38760,"target":34962},{"buffer":0,"byteLength":20024,"byteOffset":68796,"target":34962}],"buffers":[{"byteLength":88820,"uri":"SM_Reflex_Sight.bin"}],"images":[{"name":"Polygon_Texture_vol2","uri":"Polygon_Texture_vol2.png"}],"materials":[{"alphaMode":"OPAQUE","doubleSided":false,"extras":{"fromFBX":{"isTruePBR":false,"shadingModel":"Phong"}},"name":"main","pbrMetallicRoughness":{"baseColorFactor":[1,1,1,1],"baseColorTexture":{"index":0,"texCoord":0},"metallicFactor":0.400000005960464,"roughnessFactor":0.229415729641914}}],"meshes":[{"name":"SM_Reflex_Sight","primitives":[{"attributes":{"NORMAL":2,"POSITION":1,"TEXCOORD_0":3},"indices":0,"material":0,"mode":4}]}],"nodes":[{"mesh":0,"name":"SM_Reflex_Sight","rotation":[0,0,0,1],"scale":[1,1,1],"translation":[15.2776288986206,0.354028701782227,0.33137434720993]}],"samplers":[{}],"scene":0,"scenes":[{"name":"Root Scene","nodes":[0]}],"textures":[{"name":"base_color_texture","sampler":0,"source":0}]}