{"accessors":[{"bufferView":0,"byteOffset":0,"componentType":5123,"count":5010,"type":"SCALAR"},{"bufferView":1,"byteOffset":0,"componentType":5126,"count":3057,"max":[0.168020337820053,0.0588945150375366,0.029440201818943],"min":[-0.20771934092045,0.000000154599547386169,-0.02927482314408],"type":"VEC3"},{"bufferView":2,"byteOffset":0,"componentType":5126,"count":3057,"type":"VEC3"},{"bufferView":3,"byteOffset":0,"componentType":5126,"count":3057,"type":"VEC2"}],"asset":{"generator":"FBX2glTF v0.13.1","version":"2.0"},"bufferViews":[{"buffer":0,"byteLength":10020,"byteOffset":0,"target":34963},{"buffer":0,"byteLength":36684,"byteOffset":10020,"target":34962},{"buffer":0,"byteLength":36684,"byteOffset":46704,"target":34962},{"buffer":0,"byteLength":24456,"byteOffset":83388,"target":34962}],"buffers":[{"byteLength":107844,"uri":"SM_Sniper_Scope.bin"}],"images":[{"name":"Polygon_Texture_vol2","uri":"Polygon_Texture_vol2.png"}],"materials":[{"alphaMode":"OPAQUE","doubleSided":false,"extras":{"fromFBX":{"isTruePBR":false,"shadingModel":"Phong"}},"name":"main","pbrMetallicRoughness":{"baseColorFactor":[1,1,1,1],"baseColorTexture":{"index":0,"texCoord":0},"metallicFactor":0.400000005960464,"roughnessFactor":0.229415729641914}}],"meshes":[{"name":"SM_Sniper_Scope","primitives":[{"attributes":{"NORMAL":2,"POSITION":1,"TEXCOORD_0":3},"indices":0,"material":0,"mode":4}]}],"nodes":[{"mesh":0,"name":"SM_Sniper_Scope","rotation":[0,0,0,1],"scale":[1,1,1],"translation":[15.2702264785767,0.323040544986725,-0.1300131380558]}],"samplers":[{}],"scene":0,"scenes":[{"name":"Root Scene","nodes":[0]}],"textures":[{"name":"base_color_texture","sampler":0,"source":0}]}