{"accessors":[{"bufferView":0,"byteOffset":0,"componentType":5123,"count":8346,"type":"SCALAR"},{"bufferView":1,"byteOffset":0,"componentType":5126,"count":5197,"max":[0.0417721271514893,0.037679273635149,0.0140770217403769],"min":[-0.02525303699076,-0.00387314613909,-0.01845297217369],"type":"VEC3"},{"bufferView":2,"byteOffset":0,"componentType":5126,"count":5197,"type":"VEC3"},{"bufferView":3,"byteOffset":0,"componentType":5126,"count":5197,"type":"VEC2"}],"asset":{"generator":"FBX2glTF v0.13.1","version":"2.0"},"bufferViews":[{"buffer":0,"byteLength":16692,"byteOffset":0,"target":34963},{"buffer":0,"byteLength":62364,"byteOffset":16692,"target":34962},{"buffer":0,"byteLength":62364,"byteOffset":79056,"target":34962},{"buffer":0,"byteLength":41576,"byteOffset":141420,"target":34962}],"buffers":[{"byteLength":182996,"uri":"SM_Square_Dot_Sight.bin"}],"images":[{"name":"Polygon_Texture_vol2","uri":"Polygon_Texture_vol2.png"}],"materials":[{"alphaMode":"OPAQUE","doubleSided":false,"extras":{"fromFBX":{"isTruePBR":false,"shadingModel":"Phong"}},"name":"main","pbrMetallicRoughness":{"baseColorFactor":[1,1,1,1],"baseColorTexture":{"index":0,"texCoord":0},"metallicFactor":0.400000005960464,"roughnessFactor":0.229415729641914}}],"meshes":[{"name":"SM_Square_Dot_Sight","primitives":[{"attributes":{"NORMAL":2,"POSITION":1,"TEXCOORD_0":3},"indices":0,"material":0,"mode":4}]}],"nodes":[{"mesh":0,"name":"SM_Square_Dot_Sight","rotation":[0,0,0,1],"scale":[1,1,1],"translation":[15.2871313095093,0.303240686655045,0.29875460267067]}],"samplers":[{}],"scene":0,"scenes":[{"name":"Root Scene","nodes":[0]}],"textures":[{"name":"base_color_texture","sampler":0,"source":0}]}