{"accessors":[{"bufferView":0,"byteOffset":0,"componentType":5123,"count":26361,"type":"SCALAR"},{"bufferView":1,"byteOffset":0,"componentType":5126,"count":15563,"max":[0.267206490039825,0.119897067546844,0.018299600109458],"min":[-0.36825343966484,-0.08148919045925,-0.02624521404505],"type":"VEC3"},{"bufferView":2,"byteOffset":0,"componentType":5126,"count":15563,"type":"VEC3"},{"bufferView":3,"byteOffset":0,"componentType":5126,"count":15563,"type":"VEC2"},{"bufferView":4,"byteOffset":0,"componentType":5123,"count":630,"type":"SCALAR"},{"bufferView":5,"byteOffset":0,"componentType":5126,"count":306,"max":[0.0656068027019501,0.00355997309088707,0.00715954229235649],"min":[-0.03459559008479,-0.0024939365685,-0.01101441215724],"type":"VEC3"},{"bufferView":6,"byteOffset":0,"componentType":5126,"count":306,"type":"VEC3"},{"bufferView":7,"byteOffset":0,"componentType":5126,"count":306,"type":"VEC2"},{"bufferView":8,"byteOffset":0,"componentType":5123,"count":858,"type":"SCALAR"},{"bufferView":9,"byteOffset":0,"componentType":5126,"count":550,"max":[0.00533107668161392,0.00650729751214385,0.021250169724226],"min":[-0.00769159011543,-0.02554302476346,-0.02064509503543],"type":"VEC3"},{"bufferView":10,"byteOffset":0,"componentType":5126,"count":550,"type":"VEC3"},{"bufferView":11,"byteOffset":0,"componentType":5126,"count":550,"type":"VEC2"},{"bufferView":12,"byteOffset":0,"componentType":5123,"count":858,"type":"SCALAR"},{"bufferView":13,"byteOffset":0,"componentType":5126,"count":558,"max":[0.00533107668161392,0.00650729751214385,0.021250169724226],"min":[-0.00769159011543,-0.02554302476346,-0.02064509503543],"type":"VEC3"},{"bufferView":14,"byteOffset":0,"componentType":5126,"count":558,"type":"VEC3"},{"bufferView":15,"byteOffset":0,"componentType":5126,"count":558,"type":"VEC2"},{"bufferView":16,"byteOffset":0,"componentType":5123,"count":402,"type":"SCALAR"},{"bufferView":17,"byteOffset":0,"componentType":5126,"count":240,"max":[0.0139487525448203,0.0170140340924263,0.00235320325009525],"min":[-0.01538173854351,-0.00849456246942,-0.0023532032501],"type":"VEC3"},{"bufferView":18,"byteOffset":0,"componentType":5126,"count":240,"type":"VEC3"},{"bufferView":19,"byteOffset":0,"componentType":5126,"count":240,"type":"VEC2"}],"asset":{"generator":"FBX2glTF v0.13.1","version":"2.0"},"bufferViews":[{"buffer":0,"byteLength":52722,"byteOffset":0,"target":34963},{"buffer":0,"byteLength":186756,"byteOffset":52724,"target":34962},{"buffer":0,"byteLength":186756,"byteOffset":239480,"target":34962},{"buffer":0,"byteLength":124504,"byteOffset":426236,"target":34962},{"buffer":0,"byteLength":1260,"byteOffset":550740,"target":34963},{"buffer":0,"byteLength":3672,"byteOffset":552000,"target":34962},{"buffer":0,"byteLength":3672,"byteOffset":555672,"target":34962},{"buffer":0,"byteLength":2448,"byteOffset":559344,"target":34962},{"buffer":0,"byteLength":1716,"byteOffset":561792,"target":34963},{"buffer":0,"byteLength":6600,"byteOffset":563508,"target":34962},{"buffer":0,"byteLength":6600,"byteOffset":570108,"target":34962},{"buffer":0,"byteLength":4400,"byteOffset":576708,"target":34962},{"buffer":0,"byteLength":1716,"byteOffset":581108,"target":34963},{"buffer":0,"byteLength":6696,"byteOffset":582824,"target":34962},{"buffer":0,"byteLength":6696,"byteOffset":589520,"target":34962},{"buffer":0,"byteLength":4464,"byteOffset":596216,"target":34962},{"buffer":0,"byteLength":804,"byteOffset":600680,"target":34963},{"buffer":0,"byteLength":2880,"byteOffset":601484,"target":34962},{"buffer":0,"byteLength":2880,"byteOffset":604364,"target":34962},{"buffer":0,"byteLength":1920,"byteOffset":607244,"target":34962}],"buffers":[{"byteLength":609164,"uri":"SM_Tactical_Submachine_Gun.bin"}],"images":[{"name":"Polygon_Texture_vol2","uri":"Polygon_Texture_vol2.png"}],"materials":[{"alphaMode":"OPAQUE","doubleSided":false,"extras":{"fromFBX":{"isTruePBR":false,"shadingModel":"Phong"}},"name":"main","pbrMetallicRoughness":{"baseColorFactor":[1,1,1,1],"baseColorTexture":{"index":0,"texCoord":0},"metallicFactor":0.400000005960464,"roughnessFactor":0.229415729641914}}],"meshes":[{"name":"SM_Tactical_Submachine_Gun","primitives":[{"attributes":{"NORMAL":2,"POSITION":1,"TEXCOORD_0":3},"indices":0,"material":0,"mode":4}]},{"name":"SM_Trigger_For_Tactical_Submachine_Gun","primitives":[{"attributes":{"NORMAL":6,"POSITION":5,"TEXCOORD_0":7},"indices":4,"material":0,"mode":4}]},{"name":"SM_Fire_Mode_Switch_For_Tactical_Submachine_Gun","primitives":[{"attributes":{"NORMAL":10,"POSITION":9,"TEXCOORD_0":11},"indices":8,"material":0,"mode":4}]},{"name":"SM_Fuse_For_Tactical_Submachine_Gun","primitives":[{"attributes":{"NORMAL":14,"POSITION":13,"TEXCOORD_0":15},"indices":12,"material":0,"mode":4}]},{"name":"SM_Trigger_Hook_For_Tactical_Submachine_Gun","primitives":[{"attributes":{"NORMAL":18,"POSITION":17,"TEXCOORD_0":19},"indices":16,"material":0,"mode":4}]}],"nodes":[{"children":[1,2,3,4],"mesh":0,"name":"SM_Tactical_Submachine_Gun","rotation":[0,0,0,1],"scale":[1,1,1],"translation":[3.69198417663574,0.457690447568893,-0.00000041690657]},{"mesh":1,"name":"SM_Trigger_For_Tactical_Submachine_Gun","rotation":[0,0,0,1],"scale":[1,1,1],"translation":[-0.23876219987869,0.0493476465344429,0.0204608887434006]},{"mesh":2,"name":"SM_Fire_Mode_Switch_For_Tactical_Submachine_Gun","rotation":[0,0,0,1],"scale":[1,1,1],"translation":[-0.15217101573944,0.0744239017367363,0.000000416906544842277]},{"mesh":3,"name":"SM_Fuse_For_Tactical_Submachine_Gun","rotation":[0,0,0,1],"scale":[1,1,1],"translation":[-0.03021728433669,0.0744239017367363,0.000000416906544842277]},{"mesh":4,"name":"SM_Trigger_Hook_For_Tactical_Submachine_Gun","rotation":[0,0,0,1],"scale":[1,1,1],"translation":[-0.05507629364729,0.0348106771707535,0.00030295489705167]}],"samplers":[{}],"scene":0,"scenes":[{"name":"Root Scene","nodes":[0]}],"textures":[{"name":"base_color_texture","sampler":0,"source":0}]}